<svg id="svg" version="1.1" xmlns="http://www.w3.org/2000/svg" xmlns:xlink="http://www.w3.org/1999/xlink" width="400" height="402.58481421647815" viewBox="0, 0, 400,402.58481421647815"><g id="svgg"><path id="path0" d="M150.600 119.200 C 150.460 119.640,150.192 120.000,150.004 120.000 C 149.816 120.000,149.129 120.561,148.478 121.248 C 147.828 121.934,147.115 122.675,146.894 122.894 C 146.674 123.114,145.503 124.283,144.293 125.493 C 143.083 126.703,141.914 127.874,141.694 128.094 C 141.475 128.315,140.779 129.008,140.148 129.635 C 139.516 130.262,138.787 131.005,138.527 131.287 C 138.121 131.727,134.860 134.981,133.295 136.508 C 132.643 137.144,130.504 139.283,130.003 139.800 C 129.790 140.020,128.709 141.100,127.601 142.200 C 123.902 145.872,111.439 158.622,108.300 161.946 C 104.206 166.281,104.072 167.811,107.469 171.445 C 107.947 171.956,108.454 172.740,108.596 173.187 C 108.738 173.634,109.022 174.000,109.227 174.000 C 109.432 174.000,109.600 174.227,109.600 174.504 C 109.600 174.781,110.014 175.456,110.521 176.004 C 111.027 176.552,111.561 177.315,111.708 177.700 C 111.855 178.085,112.161 178.400,112.387 178.400 C 112.614 178.400,112.800 178.593,112.800 178.829 C 112.800 179.064,113.025 179.508,113.300 179.815 C 114.446 181.092,114.800 181.584,114.800 181.896 C 114.800 182.249,116.149 184.069,117.300 185.270 C 117.685 185.671,118.000 186.167,118.000 186.371 C 118.000 186.576,118.225 186.981,118.500 187.271 C 119.552 188.383,121.200 190.765,121.200 191.173 C 121.200 191.408,121.365 191.600,121.567 191.600 C 121.769 191.600,122.347 192.275,122.850 193.100 C 123.354 193.925,123.897 194.656,124.057 194.725 C 124.358 194.854,122.034 198.496,121.500 198.733 C 121.335 198.807,121.200 199.122,121.200 199.433 C 121.200 199.745,121.055 200.000,120.877 200.000 C 120.559 200.000,118.000 203.416,118.000 203.840 C 118.000 203.960,117.775 204.308,117.500 204.615 C 116.331 205.918,116.000 206.387,116.000 206.740 C 116.000 206.946,115.730 207.218,115.400 207.345 C 115.070 207.471,114.800 207.773,114.800 208.016 C 114.800 208.259,114.575 208.708,114.300 209.015 C 113.113 210.338,112.800 210.791,112.800 211.183 C 112.800 211.412,112.632 211.600,112.427 211.600 C 112.222 211.600,111.938 211.966,111.796 212.413 C 111.654 212.860,111.147 213.644,110.669 214.155 C 109.391 215.522,108.400 216.911,108.400 217.334 C 108.400 217.539,108.085 217.998,107.700 218.354 C 106.329 219.623,105.200 221.585,105.209 222.684 C 105.220 224.139,107.205 226.296,129.346 248.917 C 132.836 252.483,136.526 256.374,137.546 257.564 C 140.878 261.453,150.376 270.800,150.995 270.800 C 151.333 270.800,151.600 270.447,151.600 270.000 C 151.600 269.560,151.432 269.200,151.227 269.200 C 151.022 269.200,150.750 268.872,150.622 268.471 C 150.495 268.069,150.078 267.390,149.695 266.961 C 149.313 266.532,148.376 265.285,147.614 264.191 C 146.852 263.096,145.997 261.962,145.714 261.671 C 145.431 261.381,145.200 260.925,145.200 260.660 C 145.200 260.394,144.840 259.917,144.400 259.600 C 143.960 259.283,143.600 258.787,143.600 258.499 C 143.600 258.211,143.330 257.871,143.000 257.745 C 142.670 257.618,142.400 257.272,142.400 256.975 C 142.400 256.679,141.972 256.008,141.448 255.484 C 140.924 254.961,140.372 254.142,140.221 253.666 C 140.070 253.190,139.778 252.800,139.573 252.800 C 139.368 252.800,139.200 252.543,139.200 252.229 C 139.200 251.915,138.774 251.323,138.254 250.914 C 137.734 250.505,137.181 249.771,137.027 249.285 C 136.872 248.798,136.578 248.400,136.373 248.400 C 136.168 248.400,136.000 248.207,136.000 247.971 C 136.000 247.736,135.775 247.292,135.500 246.985 C 134.308 245.656,134.000 245.208,134.000 244.804 C 134.000 244.568,133.730 244.271,133.400 244.145 C 133.070 244.018,132.800 243.746,132.800 243.540 C 132.800 243.334,132.080 242.191,131.200 241.000 C 130.320 239.809,129.600 238.739,129.600 238.622 C 129.600 238.394,128.756 237.318,127.300 235.690 C 126.805 235.136,126.400 234.439,126.400 234.142 C 126.400 233.844,126.259 233.600,126.086 233.600 C 125.914 233.600,125.433 233.015,125.018 232.300 C 124.602 231.585,124.023 230.856,123.731 230.680 C 123.439 230.504,123.200 230.177,123.200 229.953 C 123.200 229.580,121.332 226.864,120.756 226.400 C 120.620 226.290,120.381 225.795,120.227 225.300 C 120.072 224.805,119.823 224.397,119.673 224.394 C 118.583 224.369,118.265 223.611,119.056 222.923 C 119.512 222.525,120.013 221.795,120.170 221.300 C 120.326 220.805,120.622 220.400,120.827 220.400 C 121.032 220.400,121.200 220.149,121.200 219.843 C 121.200 219.536,121.470 219.182,121.800 219.055 C 122.130 218.929,122.400 218.627,122.400 218.386 C 122.400 217.968,124.035 215.597,125.100 214.471 C 125.375 214.181,125.600 213.686,125.600 213.371 C 125.600 213.057,125.768 212.800,125.973 212.800 C 126.178 212.800,126.474 212.395,126.630 211.900 C 126.787 211.405,127.249 210.765,127.657 210.477 C 128.066 210.190,128.400 209.704,128.400 209.397 C 128.400 209.091,128.625 208.696,128.900 208.520 C 129.485 208.145,130.324 206.896,130.658 205.900 C 130.917 205.128,131.600 204.942,131.600 205.642 C 131.600 206.038,133.793 209.098,134.436 209.600 C 134.577 209.710,134.819 210.205,134.973 210.700 C 135.128 211.195,135.422 211.600,135.627 211.600 C 135.832 211.600,136.000 211.855,136.000 212.167 C 136.000 212.478,136.135 212.793,136.300 212.867 C 136.801 213.089,139.200 216.324,139.200 216.777 C 139.200 217.009,139.339 217.200,139.509 217.200 C 139.679 217.200,140.157 217.830,140.572 218.600 C 140.987 219.370,141.478 220.000,141.663 220.000 C 141.848 220.000,142.000 220.244,142.000 220.542 C 142.000 220.839,142.405 221.536,142.900 222.090 C 144.495 223.873,145.200 224.802,145.200 225.118 C 145.200 225.453,146.576 227.298,147.700 228.470 C 148.085 228.871,148.400 229.476,148.400 229.813 C 148.400 230.149,148.670 230.529,149.000 230.655 C 149.330 230.782,149.600 231.054,149.600 231.260 C 149.600 231.603,149.851 231.965,151.022 233.314 C 151.255 233.581,151.569 234.070,151.720 234.400 C 152.105 235.240,152.893 236.411,153.600 237.195 C 154.985 238.731,156.000 240.207,156.000 240.687 C 156.000 240.969,156.168 241.200,156.373 241.200 C 156.578 241.200,156.847 241.515,156.971 241.900 C 157.094 242.285,157.643 243.140,158.190 243.800 C 158.737 244.460,159.332 245.180,159.512 245.400 C 159.692 245.620,160.185 246.385,160.606 247.100 C 161.028 247.815,161.514 248.400,161.686 248.400 C 161.859 248.400,162.000 248.662,162.000 248.982 C 162.000 249.302,162.414 249.977,162.919 250.483 C 163.425 250.988,163.959 251.717,164.107 252.101 C 164.485 253.086,165.600 252.984,165.600 251.965 C 165.600 251.505,165.060 249.963,164.400 248.537 C 163.740 247.111,163.200 245.777,163.200 245.572 C 163.200 245.367,163.020 245.200,162.800 245.200 C 162.580 245.200,162.400 245.021,162.400 244.803 C 162.400 244.157,161.035 241.200,160.737 241.200 C 160.587 241.200,160.345 240.660,160.200 240.000 C 160.055 239.340,159.791 238.800,159.613 238.800 C 159.435 238.800,159.171 238.170,159.026 237.400 C 158.882 236.630,158.636 236.000,158.480 236.000 C 158.323 236.000,157.960 235.415,157.673 234.700 C 157.385 233.985,156.621 232.320,155.975 231.000 C 155.328 229.680,154.800 228.375,154.800 228.100 C 154.800 227.825,154.634 227.600,154.432 227.600 C 154.229 227.600,153.945 227.060,153.800 226.400 C 153.655 225.740,153.371 225.200,153.168 225.200 C 152.966 225.200,152.800 224.930,152.800 224.600 C 152.800 224.270,152.640 224.000,152.445 224.000 C 152.249 224.000,151.971 223.370,151.826 222.600 C 151.682 221.830,151.392 221.200,151.182 221.200 C 150.972 221.200,150.800 220.936,150.800 220.614 C 150.800 219.890,149.511 217.049,149.100 216.867 C 148.935 216.793,148.800 216.538,148.800 216.298 C 148.800 215.765,146.367 210.678,145.979 210.400 C 145.826 210.290,145.574 209.615,145.418 208.900 C 145.263 208.185,145.015 207.600,144.866 207.600 C 144.544 207.600,143.751 205.841,143.379 204.300 C 143.233 203.695,142.953 203.200,142.757 203.200 C 142.560 203.200,142.400 203.021,142.400 202.803 C 142.400 202.157,141.035 199.200,140.737 199.200 C 140.587 199.200,140.345 198.660,140.200 198.000 C 140.055 197.340,139.785 196.800,139.600 196.800 C 139.415 196.800,139.145 196.260,139.000 195.599 C 138.740 194.417,139.998 191.600,140.786 191.600 C 140.962 191.600,141.212 191.285,141.342 190.900 C 141.665 189.936,142.411 188.809,143.900 187.031 C 144.175 186.702,144.400 186.265,144.400 186.060 C 144.400 185.854,144.670 185.582,145.000 185.455 C 145.330 185.329,145.600 184.958,145.600 184.631 C 145.600 184.304,146.005 183.604,146.500 183.076 C 147.858 181.626,148.800 180.288,148.800 179.807 C 148.800 179.570,149.160 179.117,149.600 178.800 C 150.040 178.483,150.400 178.033,150.400 177.801 C 150.400 177.568,150.760 177.070,151.200 176.693 C 151.640 176.316,152.000 175.776,152.000 175.492 C 152.000 175.209,152.360 174.717,152.800 174.400 C 153.240 174.083,153.600 173.606,153.600 173.340 C 153.600 173.075,153.831 172.619,154.114 172.329 C 154.397 172.038,155.252 170.900,156.014 169.800 C 156.776 168.700,157.535 167.740,157.700 167.667 C 157.865 167.593,158.000 167.355,158.000 167.138 C 158.000 166.921,158.225 166.492,158.500 166.185 C 159.519 165.049,159.847 164.583,160.108 163.900 C 160.255 163.515,160.561 163.200,160.787 163.200 C 161.014 163.200,161.200 162.921,161.200 162.581 C 161.200 162.240,161.650 161.545,162.200 161.035 C 162.750 160.525,163.200 159.904,163.200 159.654 C 163.200 159.404,163.377 159.200,163.592 159.200 C 163.808 159.200,164.094 158.763,164.228 158.229 C 164.363 157.695,164.726 157.161,165.036 157.041 C 165.346 156.922,165.600 156.582,165.600 156.285 C 165.600 155.987,166.050 155.353,166.600 154.875 C 167.150 154.397,167.600 153.734,167.600 153.403 C 167.600 153.071,167.739 152.800,167.909 152.800 C 168.079 152.800,168.552 152.181,168.959 151.423 C 169.367 150.666,169.948 149.952,170.250 149.836 C 170.553 149.720,170.800 149.349,170.800 149.013 C 170.800 148.676,170.951 148.400,171.136 148.400 C 171.535 148.400,172.400 146.608,172.400 145.781 C 172.400 143.152,153.738 160.863,133.288 182.900 C 131.606 184.713,131.182 184.755,130.264 183.200 C 129.874 182.540,129.385 182.000,129.177 182.000 C 128.970 182.000,128.800 181.758,128.800 181.462 C 128.800 181.166,128.349 180.401,127.798 179.762 C 127.246 179.123,126.694 178.285,126.571 177.900 C 126.447 177.515,126.199 177.200,126.020 177.200 C 125.840 177.200,125.588 176.885,125.458 176.500 C 125.124 175.504,124.285 174.255,123.700 173.880 C 123.425 173.704,123.200 173.377,123.200 173.153 C 123.200 172.761,121.530 170.360,120.500 169.271 C 120.225 168.981,120.000 168.525,120.000 168.260 C 120.000 167.994,119.658 167.530,119.241 167.229 C 118.504 166.698,118.510 166.654,119.441 165.723 C 119.968 165.195,120.400 164.592,120.400 164.382 C 120.400 164.172,120.675 163.685,121.010 163.300 C 123.135 160.862,123.600 160.229,123.600 159.775 C 123.600 159.495,123.742 159.207,123.916 159.133 C 124.090 159.060,124.855 158.104,125.616 157.009 C 126.377 155.915,127.313 154.668,127.695 154.239 C 128.078 153.810,128.495 153.131,128.622 152.729 C 128.750 152.328,129.022 152.000,129.227 152.000 C 129.432 152.000,129.600 151.730,129.600 151.400 C 129.600 151.070,129.744 150.800,129.920 150.800 C 130.095 150.800,130.680 150.085,131.220 149.211 C 131.759 148.337,132.335 147.617,132.500 147.611 C 132.665 147.605,132.800 147.407,132.800 147.171 C 132.800 146.936,133.025 146.492,133.300 146.185 C 134.492 144.856,134.800 144.408,134.800 144.004 C 134.800 143.768,135.070 143.471,135.400 143.345 C 135.730 143.218,136.000 142.907,136.000 142.653 C 136.000 142.399,136.450 141.707,137.000 141.113 C 137.550 140.520,138.000 139.862,138.000 139.651 C 138.000 139.440,138.135 139.207,138.300 139.133 C 138.465 139.060,139.224 138.100,139.986 137.000 C 140.748 135.900,141.603 134.762,141.886 134.471 C 142.169 134.181,142.400 133.763,142.400 133.543 C 142.400 133.323,142.625 132.892,142.900 132.585 C 144.087 131.262,144.400 130.809,144.400 130.417 C 144.400 130.188,144.586 130.000,144.813 130.000 C 145.039 130.000,145.345 129.685,145.492 129.300 C 145.639 128.915,146.173 128.152,146.679 127.604 C 147.186 127.056,147.600 126.381,147.600 126.104 C 147.600 125.827,147.768 125.600,147.973 125.600 C 148.178 125.600,148.462 125.234,148.604 124.787 C 148.746 124.340,149.253 123.556,149.731 123.045 C 151.343 121.320,152.000 120.242,152.000 119.319 C 152.000 118.181,150.952 118.092,150.600 119.200 M197.012 157.460 C 194.641 158.295,190.418 160.387,188.551 161.651 C 187.644 162.266,186.789 162.656,186.651 162.518 C 186.513 162.380,186.400 164.817,186.400 167.933 C 186.400 174.574,186.406 174.579,189.001 170.313 C 190.814 167.332,194.313 162.642,197.663 158.702 C 199.189 156.907,199.094 156.726,197.012 157.460 M236.720 165.774 L 236.903 171.148 235.046 172.020 C 232.566 173.186,232.532 173.325,234.285 175.126 C 235.118 175.981,237.137 178.129,238.772 179.900 C 241.932 183.324,242.308 183.469,243.139 181.594 C 243.762 180.186,243.887 180.178,248.761 181.206 C 250.829 181.643,252.768 182.000,253.070 182.000 C 253.552 182.000,251.589 179.177,248.504 175.437 C 247.430 174.134,247.515 173.004,248.827 171.163 C 249.784 169.819,249.801 169.151,248.900 168.374 C 248.515 168.042,247.927 167.355,247.592 166.847 L 246.985 165.924 245.044 166.956 C 242.711 168.197,243.138 168.434,239.767 164.015 C 236.322 159.497,236.504 159.392,236.720 165.774 M178.000 170.871 C 173.582 176.053,167.604 187.229,168.143 189.300 C 168.243 189.685,168.162 190.000,167.963 190.000 C 167.763 190.000,167.600 190.180,167.600 190.400 C 167.600 191.144,168.196 190.804,169.000 189.600 C 170.096 187.960,170.266 188.067,170.583 190.600 C 170.734 191.810,171.025 192.800,171.229 192.800 C 171.433 192.800,171.600 193.340,171.600 194.000 C 171.600 194.660,171.757 195.200,171.948 195.200 C 172.140 195.200,172.419 196.280,172.568 197.600 C 172.718 198.920,172.990 200.000,173.174 200.000 C 173.357 200.000,173.632 200.990,173.783 202.200 C 173.934 203.410,174.225 204.400,174.429 204.400 C 174.633 204.400,174.800 204.940,174.800 205.600 C 174.800 206.260,174.962 206.800,175.161 206.800 C 175.359 206.800,175.647 207.880,175.800 209.200 C 175.953 210.520,176.218 211.600,176.388 211.600 C 176.558 211.600,176.815 212.493,176.960 213.584 C 177.105 214.675,177.398 215.675,177.612 215.807 C 177.825 215.939,178.000 216.566,178.000 217.200 C 178.000 217.834,178.167 218.456,178.372 218.583 C 178.577 218.709,178.867 219.800,179.018 221.006 C 179.169 222.213,179.451 223.200,179.646 223.200 C 179.841 223.200,180.000 223.740,180.000 224.400 C 180.000 225.060,180.167 225.600,180.371 225.600 C 180.575 225.600,180.866 226.592,181.018 227.805 C 181.170 229.018,181.436 230.098,181.609 230.206 C 181.783 230.313,182.049 231.300,182.200 232.400 C 182.351 233.500,182.638 234.500,182.837 234.623 C 183.037 234.746,183.200 235.276,183.200 235.800 C 183.200 236.324,183.367 236.856,183.572 236.983 C 183.777 237.109,184.068 238.202,184.219 239.412 C 184.370 240.621,184.652 241.709,184.847 241.829 C 185.041 241.949,185.200 242.376,185.200 242.778 C 185.200 243.591,186.291 247.445,186.804 248.441 C 186.985 248.794,187.254 249.874,187.402 250.841 L 187.672 252.600 191.536 254.498 C 195.207 256.302,199.501 258.000,200.390 258.000 C 200.660 258.000,200.800 254.372,200.800 247.400 C 200.800 238.765,200.700 236.800,200.260 236.800 C 197.444 236.800,188.779 227.270,186.113 221.242 C 181.951 211.831,180.242 187.598,183.510 184.330 C 184.098 183.742,184.166 182.000,183.600 182.000 C 183.380 182.000,183.200 181.370,183.200 180.600 C 183.200 179.830,183.033 179.200,182.829 179.200 C 182.625 179.200,182.334 178.210,182.183 177.000 C 182.032 175.790,181.772 174.800,181.605 174.800 C 181.439 174.800,181.182 174.035,181.035 173.100 C 180.401 169.069,179.869 168.678,178.000 170.871 M250.441 228.479 C 247.380 231.364,241.752 235.600,240.979 235.600 C 240.316 235.600,239.600 236.833,239.600 237.974 C 239.600 238.428,239.464 238.800,239.298 238.800 C 238.948 238.800,238.165 240.502,237.779 242.100 C 237.633 242.705,237.353 243.200,237.157 243.200 C 236.960 243.200,236.800 243.471,236.800 243.802 C 236.800 244.133,236.353 245.330,235.807 246.463 C 235.260 247.595,234.700 249.125,234.562 249.861 C 234.424 250.597,234.151 251.200,233.955 251.200 C 233.760 251.200,233.600 251.470,233.600 251.800 C 233.600 255.768,246.028 242.333,250.250 233.800 C 253.931 226.362,253.974 225.150,250.441 228.479 M227.200 241.817 C 225.937 242.132,222.828 242.373,219.900 242.383 L 214.800 242.400 214.800 251.043 L 214.800 259.687 215.700 259.470 C 216.195 259.351,217.770 259.052,219.200 258.805 C 221.524 258.405,224.430 257.491,228.300 255.944 L 229.600 255.425 229.600 248.312 C 229.600 244.401,229.555 241.215,229.500 241.234 C 229.445 241.253,228.410 241.515,227.200 241.817 M157.274 316.688 C 157.374 317.210,158.128 317.491,160.403 317.857 C 165.077 318.609,165.200 318.592,165.200 317.200 L 165.200 316.000 161.171 316.000 C 157.576 316.000,157.156 316.074,157.274 316.688 M167.676 317.493 L 167.800 318.986 170.600 319.468 C 175.832 320.370,176.000 320.324,176.000 318.000 L 176.000 316.000 171.776 316.000 L 167.552 316.000 167.676 317.493 M189.600 321.400 L 189.600 326.800 193.600 326.800 L 197.600 326.800 197.600 321.400 L 197.600 316.000 193.600 316.000 L 189.600 316.000 189.600 321.400 M200.000 321.400 L 200.000 326.800 203.800 326.800 L 207.600 326.800 207.600 321.400 L 207.600 316.000 203.800 316.000 L 200.000 316.000 200.000 321.400 M215.600 321.400 L 215.600 326.800 219.400 326.800 C 222.933 326.800,223.200 326.744,223.200 326.000 C 223.200 325.271,223.467 325.200,226.200 325.200 L 229.200 325.200 229.200 321.600 L 229.200 318.000 226.200 318.000 C 223.267 318.000,223.200 317.978,223.200 317.000 C 223.200 316.004,223.187 316.000,219.400 316.000 L 215.600 316.000 215.600 321.400 M238.000 321.400 L 238.000 326.800 249.400 326.800 L 260.800 326.800 260.800 321.400 L 260.800 316.000 249.400 316.000 L 238.000 316.000 238.000 321.400 M268.400 321.400 L 268.400 326.800 272.400 326.800 L 276.400 326.800 276.400 321.400 L 276.400 316.000 272.400 316.000 L 268.400 316.000 268.400 321.400 M278.800 321.400 L 278.800 326.800 283.000 326.800 L 287.200 326.800 287.200 321.400 L 287.200 316.000 283.000 316.000 L 278.800 316.000 278.800 321.400 M294.800 321.400 L 294.800 326.800 304.000 326.800 L 313.200 326.800 313.200 321.400 L 313.200 316.000 304.000 316.000 L 294.800 316.000 294.800 321.400 M320.800 319.395 C 320.800 324.106,321.087 324.400,325.689 324.400 L 329.200 324.400 329.200 325.600 L 329.200 326.800 333.000 326.800 L 336.800 326.800 336.800 323.261 C 336.800 318.353,336.468 318.000,331.853 318.000 C 328.436 318.000,328.400 317.989,328.400 317.000 C 328.400 316.004,328.387 316.000,324.600 316.000 L 320.800 316.000 320.800 319.395 M172.800 322.796 C 172.030 322.970,170.545 323.233,169.500 323.381 C 167.600 323.649,167.600 323.649,167.600 325.225 L 167.600 326.800 171.800 326.800 L 176.000 326.800 176.000 324.600 C 176.000 322.162,175.889 322.099,172.800 322.796 M160.900 324.710 C 157.738 325.201,157.200 325.395,157.200 326.043 C 157.200 326.735,157.542 326.800,161.200 326.800 L 165.200 326.800 165.200 325.624 C 165.200 324.056,165.160 324.048,160.900 324.710 " stroke="none" fill="#fafafa" fill-rule="evenodd"></path><path id="path1" d="M80.000 321.283 L 80.000 337.289 81.300 337.058 C 82.015 336.932,83.545 336.708,84.700 336.562 L 86.800 336.297 86.800 332.948 C 86.800 330.983,86.965 329.600,87.200 329.600 C 87.420 329.600,87.600 330.230,87.600 331.000 C 87.600 331.770,87.756 332.400,87.947 332.400 C 88.138 332.400,88.393 333.135,88.514 334.033 C 88.634 334.931,88.793 335.720,88.866 335.785 C 88.963 335.871,95.143 334.936,97.900 334.419 C 98.161 334.370,97.962 308.000,97.700 307.998 C 97.535 307.998,95.780 307.731,93.800 307.405 C 91.820 307.080,90.065 306.811,89.900 306.807 C 89.735 306.803,89.600 307.790,89.600 309.000 C 89.600 311.314,88.829 312.141,88.760 309.900 C 88.659 306.614,88.136 306.287,81.700 305.487 L 80.000 305.276 80.000 321.283 M109.600 311.200 C 109.600 311.860,109.434 312.400,109.230 312.400 C 109.027 312.400,108.733 314.020,108.578 316.000 C 108.424 317.980,108.140 319.600,107.948 319.600 C 107.757 319.600,107.600 320.320,107.600 321.200 C 107.600 322.080,107.437 322.800,107.237 322.800 C 107.038 322.800,106.746 324.510,106.590 326.600 C 106.433 328.690,106.146 330.400,105.952 330.400 C 105.759 330.400,105.600 331.030,105.600 331.800 C 105.600 332.570,105.735 333.202,105.900 333.204 C 106.231 333.208,121.251 330.843,122.716 330.556 C 123.641 330.375,123.695 324.604,122.778 323.999 C 122.610 323.888,122.342 322.309,122.184 320.490 C 122.025 318.671,121.739 317.086,121.548 316.968 C 121.356 316.849,121.200 316.079,121.200 315.256 C 121.200 312.397,120.543 311.693,117.400 311.183 C 115.860 310.934,113.736 310.565,112.680 310.365 C 109.771 309.812,109.600 309.859,109.600 311.200 M132.000 321.200 L 132.000 328.800 133.130 328.800 C 134.231 328.800,138.156 328.208,145.345 326.959 C 147.294 326.621,149.229 326.318,149.645 326.287 C 150.341 326.234,150.400 325.847,150.400 321.360 L 150.400 316.491 149.300 316.267 C 146.394 315.676,133.693 313.618,132.900 313.609 L 132.000 313.600 132.000 321.200 M157.200 321.200 C 157.200 325.367,156.837 325.135,162.100 324.333 L 165.200 323.862 165.200 321.349 L 165.200 318.836 163.900 318.625 C 163.185 318.508,161.532 318.230,160.227 318.007 C 158.921 317.783,157.706 317.600,157.527 317.600 C 157.347 317.600,157.200 319.220,157.200 321.200 M167.600 321.168 C 167.600 323.500,167.261 323.388,172.300 322.719 C 177.472 322.033,177.753 320.777,172.900 320.037 C 171.195 319.777,169.305 319.468,168.700 319.350 C 167.616 319.140,167.600 319.167,167.600 321.168 M115.618 327.200 C 115.828 327.200,116.000 327.470,116.000 327.800 C 116.000 328.173,115.622 328.400,115.000 328.400 C 113.949 328.400,113.481 326.368,114.400 325.800 C 114.620 325.664,114.835 324.708,114.878 323.676 C 114.937 322.274,114.992 322.482,115.097 324.500 C 115.174 325.985,115.408 327.200,115.618 327.200 " stroke="none" fill="#cd1425" fill-rule="evenodd"></path><path id="path2" d="M264.000 119.367 C 264.000 119.898,264.143 120.393,264.317 120.467 C 264.491 120.540,265.046 121.275,265.550 122.100 C 266.053 122.925,266.631 123.600,266.833 123.600 C 267.035 123.600,267.200 123.855,267.200 124.167 C 267.200 124.478,267.335 124.793,267.500 124.867 C 267.821 125.009,270.400 128.696,270.400 129.012 C 270.400 129.115,270.715 129.529,271.100 129.930 C 272.412 131.299,273.600 132.973,273.600 133.453 C 273.600 133.717,273.735 133.993,273.900 134.067 C 274.401 134.289,276.800 137.524,276.800 137.977 C 276.800 138.209,276.952 138.400,277.137 138.400 C 277.322 138.400,277.813 139.030,278.228 139.800 C 278.643 140.570,279.125 141.200,279.301 141.200 C 279.476 141.200,279.793 141.655,280.004 142.210 C 280.215 142.766,280.661 143.325,280.994 143.453 C 281.327 143.581,281.600 143.923,281.600 144.214 C 281.600 144.505,281.835 144.981,282.122 145.271 C 282.410 145.562,282.989 146.385,283.409 147.100 C 283.829 147.815,284.314 148.400,284.486 148.400 C 284.659 148.400,284.800 148.676,284.800 149.013 C 284.800 149.349,285.047 149.720,285.350 149.836 C 285.652 149.952,286.233 150.666,286.641 151.423 C 287.048 152.181,287.521 152.800,287.691 152.800 C 287.861 152.800,288.000 153.062,288.000 153.382 C 288.000 153.702,288.414 154.377,288.919 154.883 C 289.425 155.388,289.959 156.117,290.107 156.501 C 290.254 156.885,290.561 157.200,290.787 157.200 C 291.014 157.200,291.200 157.431,291.200 157.713 C 291.200 158.223,292.358 159.870,293.700 161.270 C 294.085 161.671,294.400 162.270,294.400 162.600 C 294.400 162.930,294.565 163.200,294.767 163.200 C 294.969 163.200,295.545 163.875,296.046 164.700 C 296.548 165.525,297.111 166.306,297.298 166.435 C 297.485 166.565,297.359 166.902,297.019 167.184 C 296.679 167.467,296.400 167.864,296.400 168.066 C 296.400 168.413,296.066 168.885,294.900 170.185 C 294.625 170.492,294.400 170.936,294.400 171.171 C 294.400 171.407,294.232 171.600,294.027 171.600 C 293.822 171.600,293.538 171.966,293.396 172.413 C 293.254 172.860,292.747 173.653,292.269 174.175 C 290.846 175.729,290.400 176.345,290.400 176.755 C 290.400 176.968,290.175 177.381,289.900 177.671 C 288.996 178.628,287.346 180.987,287.083 181.700 C 286.941 182.085,286.639 182.400,286.413 182.400 C 286.186 182.400,286.000 182.593,286.000 182.829 C 286.000 183.337,284.997 184.403,284.529 184.392 C 284.348 184.388,282.760 182.824,281.000 180.917 C 272.532 171.740,245.677 145.200,244.860 145.200 C 243.214 145.200,244.932 149.869,246.897 150.733 C 247.064 150.807,247.200 151.122,247.200 151.433 C 247.200 151.745,247.368 152.000,247.573 152.000 C 247.778 152.000,248.072 152.405,248.227 152.900 C 248.381 153.395,248.623 153.890,248.764 154.000 C 249.407 154.502,251.600 157.562,251.600 157.958 C 251.600 158.201,251.752 158.400,251.937 158.400 C 252.122 158.400,252.613 159.030,253.028 159.800 C 253.443 160.570,253.925 161.200,254.101 161.200 C 254.276 161.200,254.593 161.655,254.804 162.210 C 255.015 162.766,255.461 163.325,255.794 163.453 C 256.127 163.581,256.400 163.923,256.400 164.214 C 256.400 164.505,256.635 164.981,256.922 165.271 C 257.210 165.562,257.789 166.385,258.209 167.100 C 258.629 167.815,259.114 168.400,259.286 168.400 C 259.459 168.400,259.600 168.676,259.600 169.013 C 259.600 169.349,259.870 169.729,260.200 169.855 C 260.530 169.982,260.800 170.293,260.800 170.547 C 260.800 170.801,261.228 171.470,261.751 172.033 C 262.273 172.597,262.826 173.450,262.978 173.929 C 263.130 174.408,263.422 174.800,263.627 174.800 C 263.832 174.800,264.000 175.070,264.000 175.400 C 264.000 175.730,264.144 176.000,264.320 176.000 C 264.495 176.000,265.080 176.715,265.620 177.589 C 266.159 178.463,266.735 179.183,266.900 179.189 C 267.065 179.195,267.200 179.455,267.200 179.767 C 267.200 180.078,267.343 180.393,267.517 180.467 C 267.691 180.540,268.246 181.275,268.750 182.100 C 269.253 182.925,269.831 183.600,270.033 183.600 C 270.235 183.600,270.400 183.792,270.400 184.027 C 270.400 184.435,272.048 186.817,273.100 187.929 C 273.375 188.219,273.600 188.632,273.600 188.845 C 273.600 189.259,274.051 189.878,275.500 191.456 C 275.995 191.995,276.400 192.595,276.400 192.790 C 276.400 192.984,276.688 193.431,277.040 193.783 C 277.627 194.370,277.627 194.535,277.040 195.772 C 276.688 196.514,276.400 197.319,276.400 197.560 C 276.400 197.802,276.262 198.000,276.094 198.000 C 275.773 198.000,274.400 200.920,274.400 201.603 C 274.400 201.821,274.234 202.000,274.032 202.000 C 273.829 202.000,273.545 202.538,273.401 203.195 C 273.257 203.853,272.972 204.494,272.769 204.619 C 272.566 204.745,272.400 205.197,272.400 205.624 C 272.400 206.051,272.234 206.400,272.032 206.400 C 271.829 206.400,271.545 206.940,271.400 207.600 C 271.255 208.260,270.971 208.800,270.768 208.800 C 270.566 208.800,270.400 209.055,270.400 209.368 C 270.400 209.964,269.191 212.454,268.732 212.804 C 268.584 212.916,268.331 213.546,268.170 214.204 C 268.009 214.862,267.765 215.490,267.629 215.600 C 267.136 215.997,265.276 219.944,265.009 221.158 C 264.859 221.841,264.571 222.400,264.368 222.400 C 264.166 222.400,264.000 222.760,264.000 223.200 C 264.000 223.640,263.834 224.000,263.632 224.000 C 263.429 224.000,263.145 224.540,263.000 225.200 C 262.855 225.860,262.610 226.400,262.456 226.400 C 262.302 226.400,261.827 227.300,261.400 228.400 C 260.973 229.500,260.484 230.400,260.312 230.400 C 260.140 230.400,259.996 230.625,259.991 230.900 C 259.986 231.175,259.450 232.480,258.800 233.800 C 258.150 235.120,257.614 236.515,257.609 236.900 C 257.604 237.285,257.434 237.600,257.232 237.600 C 257.029 237.600,256.745 238.140,256.600 238.800 C 256.455 239.460,256.171 240.000,255.968 240.000 C 255.766 240.000,255.600 240.270,255.600 240.600 C 255.600 240.930,255.434 241.200,255.232 241.200 C 255.029 241.200,254.737 241.785,254.582 242.500 C 254.426 243.215,254.187 243.890,254.050 244.000 C 253.912 244.110,253.464 244.920,253.054 245.800 C 252.643 246.680,252.058 247.878,251.754 248.462 C 251.449 249.046,251.200 249.811,251.200 250.162 C 251.200 250.513,251.020 250.800,250.800 250.800 C 250.580 250.800,250.400 251.250,250.400 251.800 C 250.400 253.145,251.394 253.092,252.288 251.700 C 252.676 251.095,253.308 250.253,253.692 249.829 C 254.076 249.406,254.495 248.731,254.622 248.329 C 254.750 247.928,255.022 247.600,255.227 247.600 C 255.432 247.600,255.600 247.330,255.600 247.000 C 255.600 246.670,255.735 246.395,255.900 246.389 C 256.065 246.383,256.641 245.663,257.180 244.789 C 257.720 243.915,258.305 243.200,258.480 243.200 C 258.656 243.200,258.800 242.930,258.800 242.600 C 258.800 242.270,258.968 242.000,259.173 242.000 C 259.378 242.000,259.672 241.603,259.826 241.119 C 259.980 240.634,260.307 240.010,260.553 239.733 C 261.696 238.442,262.000 238.007,262.000 237.660 C 262.000 237.454,262.270 237.182,262.600 237.055 C 262.930 236.929,263.200 236.549,263.200 236.213 C 263.200 235.876,263.341 235.600,263.514 235.600 C 263.686 235.600,264.171 235.015,264.591 234.300 C 265.011 233.585,265.590 232.762,265.878 232.471 C 266.165 232.181,266.400 231.705,266.400 231.414 C 266.400 231.123,266.673 230.781,267.006 230.653 C 267.339 230.525,267.785 229.966,267.996 229.410 C 268.207 228.855,268.565 228.400,268.790 228.400 C 269.016 228.400,269.200 228.138,269.200 227.818 C 269.200 227.498,269.605 226.813,270.100 226.295 C 271.189 225.155,271.943 224.040,272.258 223.100 C 272.388 222.715,272.641 222.400,272.821 222.400 C 273.001 222.400,273.553 221.680,274.048 220.800 C 274.543 219.920,275.094 219.200,275.274 219.200 C 275.453 219.200,275.600 218.945,275.600 218.633 C 275.600 218.322,275.735 218.007,275.900 217.933 C 276.065 217.860,276.824 216.900,277.586 215.800 C 278.348 214.700,279.203 213.562,279.486 213.271 C 279.769 212.981,280.000 212.486,280.000 212.171 C 280.000 211.857,280.141 211.600,280.314 211.600 C 280.486 211.600,280.971 211.015,281.391 210.300 C 281.811 209.585,282.345 208.781,282.578 208.514 C 283.318 207.662,283.810 207.026,284.514 206.011 C 284.891 205.467,285.200 205.240,285.200 205.506 C 285.200 205.979,285.926 207.005,287.261 208.421 C 287.624 208.806,288.041 209.499,288.187 209.961 C 288.334 210.422,288.622 210.800,288.827 210.800 C 289.032 210.800,289.200 211.070,289.200 211.400 C 289.200 211.730,289.377 212.000,289.592 212.000 C 289.808 212.000,290.098 212.450,290.236 213.000 C 290.374 213.550,290.608 214.000,290.757 214.000 C 290.906 214.000,291.368 214.585,291.784 215.300 C 292.199 216.015,292.643 216.690,292.770 216.800 C 292.896 216.910,293.623 217.900,294.384 219.000 C 295.145 220.100,295.910 221.060,296.084 221.133 C 296.258 221.207,296.400 221.509,296.400 221.805 C 296.400 222.101,296.692 222.635,297.049 222.992 C 297.608 223.551,297.619 223.707,297.126 224.120 C 296.443 224.693,294.400 227.444,294.400 227.790 C 294.400 228.054,294.247 228.259,292.414 230.453 C 291.746 231.252,291.200 232.107,291.200 232.353 C 291.200 232.599,291.032 232.800,290.827 232.800 C 290.622 232.800,290.330 233.190,290.179 233.666 C 290.028 234.142,289.476 234.961,288.952 235.484 C 288.428 236.008,288.000 236.709,288.000 237.042 C 288.000 237.375,287.855 237.558,287.678 237.448 C 287.501 237.339,287.022 237.868,286.615 238.624 C 286.207 239.381,285.734 240.000,285.564 240.000 C 285.393 240.000,285.134 240.378,284.987 240.839 C 284.841 241.301,284.379 242.066,283.961 242.539 C 282.327 244.387,282.070 244.749,281.813 245.561 C 281.666 246.022,281.407 246.400,281.236 246.400 C 281.066 246.400,280.587 247.030,280.172 247.800 C 279.757 248.570,279.279 249.200,279.109 249.200 C 278.939 249.200,278.800 249.470,278.800 249.800 C 278.800 250.130,278.635 250.400,278.433 250.400 C 278.231 250.400,277.653 251.075,277.150 251.900 C 276.646 252.725,276.091 253.460,275.917 253.533 C 275.743 253.607,275.600 253.907,275.600 254.200 C 275.600 254.493,275.457 254.793,275.283 254.867 C 275.109 254.940,274.554 255.675,274.050 256.500 C 273.547 257.325,272.969 258.000,272.767 258.000 C 272.565 258.000,272.400 258.270,272.400 258.600 C 272.400 258.930,272.232 259.200,272.027 259.200 C 271.822 259.200,271.530 259.592,271.378 260.071 C 271.226 260.550,270.673 261.403,270.151 261.967 C 269.628 262.530,269.200 263.199,269.200 263.453 C 269.200 263.707,268.930 264.018,268.600 264.145 C 268.270 264.271,268.000 264.618,268.000 264.915 C 268.000 265.213,267.550 265.847,267.000 266.325 C 266.450 266.803,266.000 267.389,266.000 267.626 C 266.000 267.863,265.730 268.327,265.400 268.657 C 264.692 269.365,264.599 270.800,265.261 270.800 C 265.713 270.800,273.684 262.802,282.000 254.004 C 284.310 251.561,286.431 249.345,286.713 249.081 C 288.734 247.186,289.707 246.183,292.000 243.631 C 293.430 242.039,297.660 237.632,301.400 233.837 C 311.999 223.082,312.207 222.778,310.424 220.703 C 309.998 220.206,309.278 219.367,308.824 218.839 C 308.371 218.310,308.000 217.635,308.000 217.339 C 308.000 217.042,307.859 216.800,307.686 216.800 C 307.514 216.800,307.033 216.215,306.618 215.500 C 306.202 214.785,305.623 214.056,305.331 213.880 C 305.039 213.704,304.800 213.339,304.800 213.068 C 304.800 212.798,304.440 212.317,304.000 212.000 C 303.560 211.683,303.200 211.230,303.200 210.993 C 303.200 210.517,302.264 209.181,300.931 207.755 C 300.453 207.244,299.946 206.460,299.804 206.013 C 299.662 205.566,299.417 205.200,299.259 205.200 C 299.102 205.200,298.628 204.615,298.206 203.900 C 297.335 202.422,296.956 201.912,295.731 200.575 C 295.253 200.053,294.746 199.260,294.604 198.813 C 294.462 198.366,294.178 198.000,293.973 198.000 C 293.768 198.000,293.600 197.738,293.600 197.418 C 293.600 197.098,293.185 196.421,292.678 195.914 L 291.756 194.992 292.678 194.082 C 293.185 193.581,293.600 192.927,293.600 192.629 C 293.600 192.330,293.870 191.982,294.200 191.855 C 294.530 191.729,294.800 191.431,294.800 191.194 C 294.800 190.957,295.250 190.314,295.800 189.764 C 296.350 189.214,296.800 188.517,296.800 188.215 C 296.800 187.913,296.942 187.607,297.116 187.533 C 297.290 187.460,298.055 186.504,298.816 185.409 C 299.577 184.315,300.513 183.068,300.895 182.639 C 301.278 182.210,301.695 181.531,301.822 181.129 C 301.950 180.728,302.210 180.400,302.400 180.400 C 302.590 180.400,302.862 180.034,303.004 179.587 C 303.146 179.140,303.653 178.356,304.131 177.845 C 305.422 176.464,306.422 175.112,306.902 174.100 C 307.136 173.605,307.480 173.200,307.664 173.200 C 307.849 173.200,308.000 172.939,308.000 172.620 C 308.000 172.301,308.239 171.896,308.531 171.720 C 308.823 171.544,309.402 170.815,309.818 170.100 C 310.233 169.385,310.714 168.800,310.886 168.800 C 311.059 168.800,311.200 168.072,311.200 167.183 C 311.200 165.654,310.898 165.001,309.675 163.881 C 309.386 163.616,308.666 162.883,308.075 162.251 C 302.183 155.950,297.375 151.040,282.310 135.936 C 264.613 118.191,264.000 117.637,264.000 119.367 M214.800 187.175 L 214.800 241.551 216.671 241.832 C 219.059 242.190,225.907 241.780,227.997 241.154 L 229.600 240.673 229.600 208.137 C 229.600 179.482,229.528 175.600,229.000 175.600 C 228.670 175.600,228.400 175.330,228.400 175.000 C 228.400 174.670,228.670 174.400,229.000 174.400 C 229.444 174.400,229.600 173.933,229.600 172.600 C 229.600 170.524,229.767 170.431,231.035 171.800 C 232.160 173.014,232.073 173.011,234.446 171.900 L 236.367 171.000 236.359 168.200 C 236.354 166.660,236.219 164.083,236.057 162.473 C 235.766 159.561,235.875 159.005,236.638 159.526 C 236.931 159.726,241.490 165.500,242.658 167.148 C 242.885 167.469,244.701 166.780,245.537 166.055 L 246.422 165.287 243.111 161.852 C 241.290 159.963,238.630 157.143,237.200 155.586 C 234.560 152.711,234.031 152.162,233.114 151.340 C 232.831 151.086,232.150 150.281,231.600 149.549 C 231.050 148.818,228.935 146.558,226.900 144.527 C 224.865 142.496,223.200 140.735,223.200 140.614 C 223.200 140.363,221.267 138.107,220.481 137.440 C 220.195 137.198,219.745 136.769,219.481 136.488 C 216.766 133.594,215.884 132.800,215.385 132.800 C 214.875 132.800,214.800 139.747,214.800 187.175 M198.600 135.055 C 198.160 135.616,197.570 136.282,197.289 136.537 C 194.878 138.724,189.555 144.267,187.300 146.939 C 186.351 148.064,185.850 162.000,186.759 162.000 C 186.957 162.000,188.262 161.312,189.659 160.470 C 192.022 159.047,198.826 156.000,199.640 156.000 C 200.076 156.000,200.124 157.079,199.696 157.267 C 199.048 157.550,193.082 164.907,191.408 167.486 C 190.439 168.979,189.501 170.385,189.323 170.611 C 189.146 170.837,188.645 171.713,188.212 172.557 C 187.779 173.402,187.194 174.181,186.912 174.289 C 186.519 174.440,186.400 176.383,186.400 182.643 C 186.400 190.554,185.980 193.102,185.417 188.600 C 185.266 187.390,184.975 186.400,184.771 186.400 C 184.567 186.400,184.395 185.815,184.388 185.100 C 184.369 183.050,183.555 184.797,182.945 188.200 C 181.972 193.620,182.613 208.399,184.056 213.800 C 186.577 223.243,190.564 229.481,197.246 234.434 C 198.704 235.515,200.101 236.400,200.349 236.400 C 200.681 236.400,200.800 222.932,200.800 185.200 C 200.800 129.006,200.935 132.083,198.600 135.055 M175.319 159.715 C 175.055 159.982,174.605 160.413,174.319 160.672 C 174.034 160.932,172.630 162.421,171.200 163.981 C 169.770 165.541,167.106 168.367,165.280 170.261 C 163.455 172.155,161.493 174.318,160.921 175.068 C 160.349 175.818,158.243 178.129,156.241 180.204 C 154.238 182.280,151.472 185.198,150.094 186.689 C 148.716 188.180,146.601 190.447,145.394 191.727 C 142.500 194.797,142.401 197.828,145.100 200.721 C 145.375 201.016,145.600 201.514,145.600 201.829 C 145.600 202.143,145.780 202.400,146.000 202.400 C 146.220 202.400,146.400 202.670,146.400 203.000 C 146.400 203.330,146.580 203.600,146.800 203.600 C 147.020 203.600,147.200 203.949,147.200 204.376 C 147.200 204.803,147.364 205.254,147.565 205.379 C 147.766 205.503,148.342 206.458,148.845 207.502 C 149.347 208.546,149.993 209.638,150.279 209.929 C 150.566 210.219,150.800 210.699,150.800 210.995 C 150.800 211.291,150.935 211.593,151.100 211.667 C 151.265 211.740,151.715 212.385,152.100 213.100 C 152.485 213.815,153.115 214.985,153.500 215.700 C 153.885 216.415,154.292 217.090,154.404 217.200 C 154.516 217.310,154.962 218.075,155.395 218.900 C 155.828 219.725,156.321 220.400,156.491 220.400 C 156.661 220.400,156.800 220.687,156.800 221.038 C 156.800 221.732,157.899 223.863,158.700 224.721 C 158.975 225.016,159.200 225.514,159.200 225.829 C 159.200 226.143,159.360 226.400,159.557 226.400 C 159.753 226.400,160.016 226.809,160.141 227.308 C 160.266 227.807,160.714 228.586,161.136 229.039 C 161.557 229.491,162.035 230.298,162.197 230.831 C 162.360 231.364,162.922 232.373,163.446 233.073 C 163.971 233.774,164.400 234.629,164.400 234.973 C 164.400 235.318,164.560 235.600,164.757 235.600 C 164.953 235.600,165.216 236.009,165.341 236.508 C 165.466 237.007,165.929 237.802,166.368 238.274 C 166.808 238.746,167.284 239.597,167.427 240.166 C 167.570 240.735,167.847 241.200,168.043 241.200 C 168.240 241.200,168.400 241.470,168.400 241.800 C 168.400 242.130,168.591 242.400,168.824 242.400 C 169.057 242.400,169.153 242.553,169.037 242.739 C 168.922 242.926,169.159 243.435,169.565 243.870 C 169.970 244.305,170.438 245.098,170.604 245.631 C 171.051 247.070,172.374 248.800,173.027 248.800 C 173.666 248.800,173.858 246.207,173.247 245.829 C 173.052 245.709,172.770 244.621,172.619 243.412 C 172.468 242.202,172.177 241.109,171.972 240.983 C 171.767 240.856,171.600 240.133,171.600 239.376 C 171.600 238.619,171.444 238.000,171.254 238.000 C 171.064 238.000,170.793 237.153,170.651 236.119 C 170.384 234.173,169.758 231.908,169.156 230.714 C 168.966 230.336,168.693 229.031,168.550 227.814 C 168.407 226.596,168.152 225.600,167.984 225.600 C 167.816 225.600,167.553 224.520,167.400 223.199 C 167.247 221.879,166.959 220.698,166.761 220.576 C 166.562 220.453,166.400 219.823,166.400 219.176 C 166.400 218.529,166.241 218.000,166.046 218.000 C 165.851 218.000,165.564 216.965,165.408 215.700 C 165.251 214.435,164.985 213.220,164.816 213.000 C 164.647 212.780,164.388 211.790,164.239 210.800 C 163.953 208.899,163.324 206.645,162.769 205.535 C 162.586 205.169,162.315 203.950,162.166 202.826 C 162.017 201.702,161.738 200.685,161.547 200.567 C 160.878 200.154,161.209 198.284,162.100 197.446 C 162.595 196.981,163.625 195.790,164.389 194.800 C 165.153 193.810,166.233 192.595,166.789 192.100 C 167.450 191.513,167.599 191.201,167.220 191.200 C 166.791 191.200,166.757 191.083,167.089 190.751 C 167.336 190.504,167.455 190.088,167.354 189.825 C 167.253 189.562,167.446 188.819,167.783 188.174 C 168.120 187.528,168.396 186.595,168.398 186.100 C 168.399 185.605,168.580 185.200,168.800 185.200 C 169.020 185.200,169.200 184.912,169.200 184.560 C 169.200 182.843,175.032 173.360,177.909 170.400 C 179.330 168.938,179.640 165.080,178.434 163.874 C 178.195 163.635,178.000 162.936,178.000 162.320 C 178.000 161.704,177.820 161.200,177.600 161.200 C 177.380 161.200,177.200 160.750,177.200 160.200 C 177.200 159.108,176.182 158.845,175.319 159.715 M249.600 170.190 C 249.600 170.515,249.241 171.370,248.801 172.090 C 247.820 173.701,247.810 174.043,248.717 175.025 C 249.111 175.451,250.236 176.880,251.217 178.200 C 252.197 179.520,253.225 180.838,253.500 181.129 C 254.836 182.541,253.559 183.019,250.800 182.140 C 250.305 181.982,244.405 180.800,244.110 180.800 C 243.872 180.800,242.800 183.236,242.800 183.777 C 242.800 184.116,243.365 184.890,244.056 185.497 C 245.669 186.914,245.817 187.069,248.200 189.829 C 249.300 191.103,251.415 193.382,252.900 194.892 C 255.371 197.406,256.198 198.800,255.218 198.800 C 255.008 198.800,254.712 199.475,254.560 200.300 C 254.409 201.125,254.160 201.890,254.007 202.000 C 253.854 202.110,253.227 203.550,252.613 205.200 C 251.403 208.452,250.514 210.647,250.017 211.613 C 249.844 211.950,249.575 212.805,249.419 213.513 C 249.264 214.221,248.979 214.800,248.786 214.800 C 248.594 214.800,248.312 215.475,248.160 216.300 C 248.009 217.125,247.776 217.890,247.642 218.000 C 247.229 218.341,246.400 219.966,246.400 220.434 C 246.400 220.679,246.130 221.491,245.800 222.240 C 245.470 222.988,244.921 224.275,244.581 225.100 C 244.240 225.925,243.813 226.876,243.631 227.213 C 243.450 227.550,243.175 228.405,243.019 229.113 C 242.864 229.821,242.571 230.400,242.368 230.400 C 242.166 230.400,242.000 230.835,242.000 231.367 C 242.000 231.898,241.833 232.393,241.630 232.467 C 240.945 232.713,240.647 234.800,241.297 234.800 C 242.301 234.800,247.483 230.753,252.179 226.300 C 254.162 224.420,254.726 224.877,253.594 227.447 C 251.807 231.509,251.600 232.042,251.600 232.580 C 251.600 232.884,251.465 233.193,251.300 233.267 C 251.135 233.340,250.395 234.562,249.655 235.982 C 246.160 242.692,237.224 252.202,233.798 252.856 C 233.261 252.959,232.879 253.498,232.629 254.504 C 232.426 255.327,232.126 256.000,231.965 256.000 C 231.803 256.000,231.549 256.720,231.400 257.600 C 231.251 258.480,230.966 259.200,230.765 259.200 C 230.564 259.200,230.400 259.560,230.400 260.000 C 230.400 260.440,230.220 260.800,230.000 260.800 C 229.777 260.800,229.600 259.719,229.600 258.357 C 229.600 256.184,229.523 255.947,228.900 256.212 C 226.008 257.442,220.103 259.236,217.700 259.615 L 214.800 260.072 214.800 278.036 L 214.800 296.000 215.800 296.000 C 216.422 296.000,216.800 295.773,216.800 295.400 C 216.800 295.070,216.966 294.800,217.168 294.800 C 217.371 294.800,217.655 294.260,217.800 293.600 C 217.945 292.940,218.226 292.400,218.424 292.400 C 218.622 292.400,218.898 291.950,219.036 291.400 C 219.174 290.850,219.403 290.400,219.546 290.400 C 219.688 290.400,220.059 289.815,220.371 289.100 C 220.682 288.385,221.314 287.260,221.775 286.600 C 222.236 285.940,223.060 284.500,223.607 283.400 C 224.153 282.300,224.735 281.340,224.900 281.267 C 225.065 281.193,225.200 280.878,225.200 280.567 C 225.200 280.255,225.377 280.000,225.592 280.000 C 225.808 280.000,226.098 279.550,226.236 279.000 C 226.374 278.450,226.633 278.000,226.812 278.000 C 226.990 278.000,227.255 277.460,227.400 276.800 C 227.545 276.140,227.801 275.600,227.969 275.600 C 228.137 275.600,228.617 274.925,229.037 274.100 C 229.457 273.275,229.890 272.510,230.000 272.400 C 230.414 271.986,231.226 270.537,232.073 268.700 C 232.556 267.655,233.096 266.800,233.275 266.800 C 233.454 266.800,233.600 266.530,233.600 266.200 C 233.600 265.870,233.766 265.600,233.968 265.600 C 234.171 265.600,234.455 265.060,234.600 264.400 C 234.745 263.740,235.026 263.200,235.224 263.200 C 235.422 263.200,235.698 262.750,235.836 262.200 C 235.974 261.650,236.247 261.200,236.443 261.200 C 236.640 261.200,236.800 260.930,236.800 260.600 C 236.800 260.270,236.980 260.000,237.200 260.000 C 237.420 260.000,237.600 259.743,237.600 259.429 C 237.600 259.114,237.834 258.619,238.121 258.329 C 238.407 258.038,239.052 256.990,239.554 256.000 C 241.202 252.749,242.192 251.008,242.700 250.471 C 242.975 250.181,243.200 249.686,243.200 249.371 C 243.200 249.057,243.366 248.800,243.568 248.800 C 243.771 248.800,244.055 248.260,244.200 247.600 C 244.345 246.940,244.601 246.400,244.769 246.400 C 244.937 246.400,245.417 245.725,245.837 244.900 C 246.257 244.075,246.690 243.310,246.800 243.200 C 247.204 242.796,248.030 241.380,248.258 240.700 C 248.388 240.315,248.633 240.000,248.803 240.000 C 248.974 240.000,249.234 239.517,249.383 238.927 C 249.531 238.337,250.090 237.333,250.626 236.696 C 251.162 236.060,251.600 235.192,251.600 234.769 C 251.600 234.346,251.751 234.000,251.936 234.000 C 252.120 234.000,252.615 233.282,253.036 232.405 C 253.456 231.527,253.935 230.807,254.100 230.805 C 254.265 230.802,254.400 230.543,254.400 230.229 C 254.400 229.914,254.625 229.419,254.901 229.129 C 255.176 228.838,255.761 227.883,256.201 227.006 C 256.640 226.129,257.225 225.172,257.500 224.878 C 257.775 224.583,258.000 224.086,258.000 223.771 C 258.000 223.457,258.138 223.200,258.306 223.200 C 258.474 223.200,258.923 222.480,259.304 221.600 C 259.686 220.720,260.164 220.000,260.367 220.000 C 260.570 220.000,260.862 219.430,261.015 218.733 C 261.168 218.037,261.639 217.095,262.062 216.641 C 262.485 216.187,262.934 215.407,263.059 214.908 C 263.184 214.409,263.447 214.000,263.643 214.000 C 263.840 214.000,264.000 213.730,264.000 213.400 C 264.000 213.070,264.177 212.800,264.392 212.800 C 264.608 212.800,264.898 212.350,265.036 211.800 C 265.174 211.250,265.428 210.800,265.600 210.800 C 265.772 210.800,266.030 210.335,266.173 209.766 C 266.316 209.197,266.792 208.346,267.232 207.874 C 267.671 207.402,268.134 206.607,268.259 206.108 C 268.384 205.609,268.647 205.200,268.843 205.200 C 269.040 205.200,269.200 204.943,269.200 204.629 C 269.200 204.314,269.432 203.819,269.715 203.529 C 269.999 203.238,270.565 202.280,270.974 201.400 C 271.383 200.520,271.827 199.710,271.959 199.600 C 272.589 199.077,273.600 196.767,273.600 195.852 C 273.600 194.746,272.708 193.610,268.000 188.723 C 266.350 187.010,264.100 184.606,263.000 183.381 C 261.900 182.155,259.920 180.007,258.600 178.607 C 257.280 177.207,254.850 174.613,253.200 172.844 C 250.128 169.549,249.600 169.160,249.600 170.190 M187.900 253.232 C 188.175 253.522,188.400 254.174,188.400 254.680 C 188.400 255.186,188.559 255.600,188.754 255.600 C 188.949 255.600,189.232 256.590,189.383 257.800 C 189.534 259.010,189.790 260.000,189.953 260.000 C 190.115 260.000,190.467 261.125,190.735 262.500 C 191.567 266.774,191.682 267.200,191.999 267.200 C 192.169 267.200,192.432 268.190,192.583 269.400 C 192.734 270.610,193.005 271.600,193.185 271.600 C 193.492 271.600,193.984 273.749,194.030 275.292 C 194.042 275.673,194.219 276.088,194.425 276.216 C 194.631 276.343,194.800 276.977,194.800 277.624 C 194.800 278.271,194.959 278.800,195.154 278.800 C 195.349 278.800,195.632 279.790,195.783 281.000 C 195.934 282.210,196.225 283.200,196.429 283.200 C 196.633 283.200,196.800 283.740,196.800 284.400 C 196.800 285.060,196.962 285.600,197.161 285.600 C 197.359 285.600,197.647 286.680,197.800 288.000 C 197.953 289.320,198.220 290.400,198.393 290.400 C 198.566 290.400,198.832 291.390,198.983 292.600 C 199.209 294.411,199.394 294.800,200.029 294.800 C 200.779 294.800,200.800 294.307,200.800 276.600 C 200.800 258.781,200.784 258.400,200.015 258.400 C 198.677 258.400,191.985 255.541,189.004 253.696 C 188.122 253.150,187.625 252.941,187.900 253.232 M80.000 304.592 C 80.000 304.918,80.405 305.260,80.900 305.353 C 86.140 306.333,88.377 306.617,88.017 306.257 C 87.788 306.028,87.600 305.426,87.600 304.920 C 87.600 304.025,87.499 304.000,83.800 304.000 C 80.711 304.000,80.000 304.111,80.000 304.592 M89.600 305.359 C 89.600 306.854,89.181 306.700,96.300 307.806 L 98.000 308.070 98.000 306.035 L 98.000 304.000 93.800 304.000 L 89.600 304.000 89.600 305.359 M110.800 304.567 C 110.800 304.878,110.647 305.193,110.461 305.267 C 110.274 305.340,110.005 306.410,109.864 307.644 L 109.606 309.888 112.703 310.375 C 114.406 310.643,116.664 311.029,117.720 311.231 C 118.776 311.434,119.816 311.600,120.031 311.600 C 120.511 311.600,120.038 306.261,119.541 306.067 C 119.353 305.993,119.200 305.498,119.200 304.967 C 119.200 304.006,119.175 304.000,115.000 304.000 C 111.643 304.000,110.800 304.114,110.800 304.567 M132.000 308.701 L 132.000 313.403 139.300 314.517 C 144.244 315.271,147.213 315.543,148.500 315.361 L 150.400 315.091 150.400 309.546 L 150.400 304.000 146.200 304.000 L 142.000 304.000 142.000 307.600 C 142.000 309.733,141.837 311.200,141.600 311.200 C 141.380 311.200,141.200 310.570,141.200 309.800 C 141.200 309.030,141.041 308.400,140.846 308.400 C 140.651 308.400,140.368 307.410,140.217 306.200 L 139.942 304.000 135.971 304.000 L 132.000 304.000 132.000 308.701 M158.300 305.214 C 157.240 306.371,157.200 306.572,157.200 310.807 L 157.200 315.200 161.200 315.200 L 165.200 315.200 165.200 313.200 C 165.200 311.244,165.227 311.200,166.400 311.200 C 167.581 311.200,167.600 311.233,167.599 313.300 L 167.598 315.400 171.832 315.274 L 176.066 315.147 175.933 310.406 C 175.747 303.768,176.081 303.998,166.639 304.008 L 159.400 304.015 158.300 305.214 M189.600 309.573 L 189.600 315.147 193.601 315.273 L 197.602 315.400 197.601 313.300 C 197.600 311.233,197.619 311.200,198.800 311.200 C 199.973 311.200,200.000 311.244,200.000 313.200 L 200.000 315.200 203.800 315.200 L 207.600 315.200 207.600 310.229 C 207.600 303.524,208.336 304.000,197.971 304.000 L 189.600 304.000 189.600 309.573 M215.600 309.600 L 215.600 315.200 219.400 315.200 L 223.200 315.200 223.200 313.214 L 223.200 311.229 227.100 311.114 C 230.800 311.006,231.007 310.954,231.128 310.100 C 231.198 309.605,231.063 309.200,230.828 309.200 C 230.581 309.200,230.400 308.353,230.400 307.200 C 230.400 306.100,230.220 305.200,230.000 305.200 C 229.780 305.200,229.600 304.930,229.600 304.600 C 229.600 304.090,228.556 304.000,222.600 304.000 L 215.600 304.000 215.600 309.600 M238.000 309.600 L 238.000 315.200 243.600 315.200 C 248.933 315.200,249.200 315.162,249.200 314.400 C 249.200 313.960,249.038 313.600,248.839 313.600 C 248.641 313.600,248.353 312.520,248.200 311.199 C 248.047 309.879,247.759 308.698,247.561 308.576 C 247.362 308.453,247.200 307.823,247.200 307.176 C 247.200 306.529,247.020 306.000,246.800 306.000 C 246.580 306.000,246.400 305.550,246.400 305.000 L 246.400 304.000 242.200 304.000 L 238.000 304.000 238.000 309.600 M252.400 305.000 C 252.400 305.550,252.234 306.000,252.032 306.000 C 251.829 306.000,251.538 307.170,251.385 308.600 C 251.232 310.030,250.948 311.200,250.753 311.200 C 250.559 311.200,250.400 311.740,250.400 312.400 C 250.400 313.060,250.220 313.600,250.000 313.600 C 249.780 313.600,249.600 313.960,249.600 314.400 C 249.600 315.162,249.867 315.200,255.200 315.200 L 260.800 315.200 260.800 309.600 L 260.800 304.000 256.600 304.000 L 252.400 304.000 252.400 305.000 M269.466 305.197 C 268.448 306.339,268.400 306.593,268.400 310.797 L 268.400 315.200 272.400 315.200 L 276.400 315.200 276.400 313.200 C 276.400 311.244,276.427 311.200,277.600 311.200 C 278.773 311.200,278.800 311.244,278.800 313.200 L 278.800 315.200 283.000 315.200 L 287.200 315.200 287.200 310.800 C 287.200 308.133,287.042 306.400,286.800 306.400 C 286.580 306.400,286.400 306.143,286.400 305.829 C 286.400 304.206,285.436 304.000,277.838 304.000 L 270.532 304.000 269.466 305.197 M294.800 309.600 L 294.800 315.200 304.000 315.200 L 313.200 315.200 313.200 309.600 L 313.200 304.000 309.000 304.000 L 304.800 304.000 304.800 307.600 C 304.800 309.733,304.637 311.200,304.400 311.200 C 304.180 311.200,304.000 310.570,304.000 309.800 C 304.000 309.030,303.841 308.400,303.646 308.400 C 303.451 308.400,303.168 307.410,303.017 306.200 L 302.742 304.000 298.771 304.000 L 294.800 304.000 294.800 309.600 M322.316 304.614 C 322.032 304.952,321.575 305.479,321.300 305.785 C 320.964 306.160,320.800 307.793,320.800 310.771 L 320.800 315.200 324.600 315.200 L 328.400 315.200 328.400 313.200 L 328.400 311.200 332.634 311.200 L 336.868 311.200 336.586 308.100 C 336.431 306.395,336.124 304.775,335.903 304.500 C 335.259 303.697,323.000 303.800,322.316 304.614 M197.320 329.600 C 197.320 330.810,197.395 331.305,197.487 330.700 C 197.578 330.095,197.578 329.105,197.487 328.500 C 197.395 327.895,197.320 328.390,197.320 329.600 M252.958 333.000 C 252.958 336.080,253.021 337.287,253.097 335.682 C 253.173 334.078,253.173 331.558,253.096 330.082 C 253.019 328.607,252.957 329.920,252.958 333.000 M132.000 329.145 C 132.000 329.334,132.450 329.403,133.000 329.298 C 133.550 329.193,134.000 329.038,134.000 328.953 C 134.000 328.869,133.550 328.800,133.000 328.800 C 132.450 328.800,132.000 328.955,132.000 329.145 " stroke="none" fill="#04431b" fill-rule="evenodd"></path><path id="path3" d="M236.109 162.800 C 236.109 163.790,236.187 164.195,236.282 163.700 C 236.378 163.205,236.378 162.395,236.282 161.900 C 236.187 161.405,236.109 161.810,236.109 162.800 M142.800 327.582 C 141.810 327.752,139.112 328.192,136.805 328.560 C 131.631 329.385,131.949 329.003,132.086 334.234 L 132.200 338.600 135.700 338.716 L 139.200 338.831 139.200 333.949 C 139.200 331.264,139.332 329.199,139.494 329.360 C 139.787 329.653,140.573 332.852,141.053 335.700 C 141.192 336.525,141.462 337.200,141.653 337.200 C 141.844 337.200,142.000 337.560,142.000 338.000 C 142.000 338.749,142.267 338.800,146.167 338.800 L 150.335 338.800 150.267 333.433 C 150.230 330.481,150.110 327.979,150.000 327.873 C 149.599 327.484,144.551 327.280,142.800 327.582 M157.267 331.945 L 157.400 336.489 158.785 337.645 L 160.170 338.800 166.423 338.800 C 175.486 338.800,176.000 338.401,176.000 331.366 L 176.000 327.651 171.878 327.526 C 168.427 327.420,167.755 327.498,167.749 328.000 C 167.711 331.431,167.647 331.600,166.400 331.600 C 165.229 331.600,165.200 331.553,165.200 329.627 L 165.200 327.653 161.167 327.527 L 157.134 327.400 157.267 331.945 M193.500 327.498 L 189.600 327.629 189.600 333.214 L 189.600 338.800 197.525 338.800 L 205.450 338.800 206.525 337.678 C 207.561 336.597,207.600 336.393,207.600 332.078 L 207.600 327.600 203.800 327.600 L 200.000 327.600 200.000 329.600 L 200.000 331.600 198.563 331.600 L 197.126 331.600 197.263 329.399 C 197.338 328.189,197.400 327.237,197.400 327.283 C 197.400 327.330,195.645 327.426,193.500 327.498 M238.090 333.000 L 238.200 338.600 242.100 338.714 L 246.000 338.829 246.000 333.114 L 246.000 327.400 241.990 327.400 L 237.979 327.400 238.090 333.000 M253.121 333.100 L 253.241 338.800 257.021 338.800 L 260.800 338.800 260.800 333.227 L 260.800 327.653 256.900 327.527 L 253.000 327.400 253.121 333.100 M268.400 331.650 L 268.400 335.899 269.728 337.350 L 271.057 338.800 277.542 338.800 C 286.462 338.800,287.200 338.232,287.200 331.364 L 287.200 327.651 282.999 327.526 L 278.798 327.400 278.799 329.500 C 278.800 331.567,278.781 331.600,277.600 331.600 C 276.419 331.600,276.400 331.567,276.400 329.500 L 276.400 327.400 272.400 327.400 L 268.400 327.400 268.400 331.650 M294.890 333.000 L 295.000 338.600 298.500 338.716 L 302.000 338.831 302.027 333.716 C 302.056 328.234,302.255 328.189,303.419 333.400 C 303.812 335.160,304.284 336.771,304.467 336.980 C 304.650 337.189,304.800 337.690,304.800 338.094 C 304.800 338.766,305.148 338.818,308.900 338.714 L 313.000 338.600 313.110 333.000 L 313.221 327.400 304.000 327.400 L 294.779 327.400 294.890 333.000 M215.600 333.200 L 215.600 338.800 222.600 338.800 L 229.600 338.800 229.600 337.224 C 229.600 336.357,229.780 335.536,230.000 335.400 C 230.220 335.264,230.400 334.353,230.400 333.376 L 230.400 331.600 226.800 331.600 L 223.200 331.600 223.200 329.600 L 223.200 327.600 219.400 327.600 L 215.600 327.600 215.600 333.200 M246.516 328.799 C 246.562 329.459,246.735 329.999,246.900 329.999 C 247.065 330.000,247.200 330.349,247.200 330.776 C 247.200 331.203,247.363 331.654,247.563 331.777 C 247.762 331.900,248.049 332.900,248.200 334.000 C 248.351 335.100,248.622 336.090,248.801 336.201 C 249.366 336.550,250.400 335.943,250.408 335.257 C 250.413 334.896,250.862 333.340,251.407 331.800 C 252.906 327.560,252.925 327.600,249.416 327.600 L 246.432 327.600 246.516 328.799 M329.200 329.600 L 329.200 331.600 325.341 331.600 L 321.483 331.600 321.731 334.541 C 322.119 339.130,321.599 338.800,328.446 338.800 C 336.612 338.800,336.800 338.650,336.800 332.134 L 336.800 327.600 333.000 327.600 L 329.200 327.600 329.200 329.600 M113.600 332.086 C 109.530 332.741,105.975 333.344,105.700 333.426 C 105.387 333.519,105.200 334.317,105.200 335.554 C 105.200 336.717,105.006 337.598,104.729 337.690 C 103.123 338.226,105.231 338.800,108.802 338.800 L 112.756 338.800 112.878 336.900 L 113.000 335.000 114.860 334.880 L 116.719 334.759 116.999 336.794 L 117.279 338.828 121.139 338.714 L 125.000 338.600 124.907 337.200 C 124.416 329.837,125.243 330.211,113.600 332.086 M92.570 335.476 L 88.939 336.064 89.370 337.444 L 89.800 338.825 93.800 338.712 L 97.800 338.600 97.922 336.700 C 98.064 334.481,98.334 334.542,92.570 335.476 M83.005 336.958 C 78.545 337.675,78.768 338.800,83.371 338.800 L 86.800 338.800 86.800 337.600 C 86.800 336.878,86.601 336.422,86.300 336.454 C 86.025 336.484,84.542 336.710,83.005 336.958 " stroke="none" fill="#077b3c" fill-rule="evenodd"></path><path id="path4" d="M197.400 156.986 C 196.005 157.624,196.269 157.782,197.774 157.210 C 199.253 156.647,199.053 157.186,196.845 159.709 C 194.416 162.486,191.553 166.215,190.634 167.800 L 189.938 169.000 190.869 167.840 C 191.381 167.201,193.011 165.131,194.490 163.240 C 195.970 161.348,197.838 159.035,198.642 158.100 C 200.240 156.242,199.829 155.873,197.400 156.986 M190.929 159.849 C 186.540 162.180,186.400 162.267,186.657 162.524 C 186.792 162.658,187.644 162.266,188.551 161.653 C 189.458 161.039,191.055 160.130,192.100 159.633 C 193.768 158.839,194.384 158.400,193.829 158.400 C 193.735 158.400,192.430 159.052,190.929 159.849 M236.006 160.500 C 236.011 161.220,236.088 161.280,236.389 160.803 C 236.832 160.104,236.627 159.904,240.169 164.500 C 241.653 166.425,243.021 168.000,243.210 168.000 C 243.909 168.000,244.020 167.199,243.324 167.177 C 242.917 167.164,241.723 166.000,240.600 164.524 C 236.559 159.209,235.994 158.714,236.006 160.500 M236.400 166.706 L 236.400 171.011 234.392 171.964 C 233.288 172.489,232.453 172.986,232.537 173.070 C 232.621 173.154,233.614 172.758,234.745 172.190 L 236.800 171.158 236.800 166.779 C 236.800 164.371,236.710 162.400,236.600 162.400 C 236.490 162.400,236.400 164.338,236.400 166.706 M245.200 166.393 C 244.250 167.130,244.244 167.157,245.087 166.941 C 245.575 166.816,246.182 166.463,246.436 166.157 C 247.106 165.349,246.364 165.491,245.200 166.393 M177.514 170.900 C 176.534 172.055,175.396 173.540,174.987 174.200 C 174.008 175.777,174.303 175.488,176.620 172.600 C 177.679 171.280,178.900 169.885,179.334 169.500 C 179.768 169.115,179.937 168.800,179.710 168.800 C 179.483 168.800,178.495 169.745,177.514 170.900 M188.382 171.300 C 187.674 172.455,186.899 173.525,186.659 173.678 C 186.419 173.831,186.356 174.089,186.518 174.252 C 186.916 174.650,187.282 174.201,188.763 171.500 C 190.340 168.623,190.099 168.497,188.382 171.300 M247.975 172.645 C 247.442 174.020,247.536 174.205,251.137 178.838 L 253.675 182.102 251.737 181.866 C 249.864 181.637,250.322 181.904,252.900 182.543 C 254.569 182.956,254.305 182.337,250.944 177.952 C 248.099 174.241,247.920 173.894,248.359 172.931 C 248.618 172.362,248.738 171.805,248.626 171.693 C 248.514 171.581,248.221 172.009,247.975 172.645 M228.800 175.000 C 228.800 175.330,228.980 175.600,229.200 175.600 C 229.420 175.600,229.600 175.330,229.600 175.000 C 229.600 174.670,229.420 174.400,229.200 174.400 C 228.980 174.400,228.800 174.670,228.800 175.000 M173.227 176.762 C 172.772 177.401,172.400 178.034,172.400 178.170 C 172.400 178.305,171.981 179.087,171.469 179.908 C 170.369 181.673,167.868 187.601,168.119 187.852 C 168.214 187.948,168.693 186.956,169.182 185.649 C 169.671 184.342,171.024 181.546,172.190 179.436 C 174.377 175.477,174.659 174.751,173.227 176.762 M243.168 181.500 C 242.856 182.105,242.421 182.732,242.201 182.894 C 241.949 183.079,241.977 183.190,242.278 183.194 C 242.541 183.197,242.991 182.713,243.278 182.117 C 243.565 181.521,244.250 180.909,244.800 180.757 L 245.800 180.480 244.768 180.440 C 244.023 180.411,243.577 180.707,243.168 181.500 M246.800 181.200 C 247.350 181.376,248.250 181.520,248.800 181.520 L 249.800 181.520 248.800 181.200 C 248.250 181.024,247.350 180.880,246.800 180.880 L 245.800 180.880 246.800 181.200 M183.218 184.578 C 182.954 184.896,182.797 185.541,182.869 186.012 C 182.973 186.688,183.092 186.566,183.440 185.434 C 183.931 183.835,183.908 183.747,183.218 184.578 M182.250 188.450 C 181.493 192.233,182.456 211.848,183.443 212.755 C 183.590 212.890,183.598 212.190,183.461 211.200 C 182.586 204.875,182.339 200.725,182.461 194.384 C 182.538 190.433,182.578 187.200,182.550 187.200 C 182.523 187.200,182.388 187.763,182.250 188.450 M183.848 214.813 C 184.235 216.860,184.808 217.688,184.531 215.800 C 184.401 214.920,184.136 214.026,183.940 213.813 C 183.731 213.584,183.693 213.996,183.848 214.813 M184.827 217.878 C 184.795 218.445,187.466 224.400,187.752 224.400 C 187.922 224.400,187.302 222.881,185.301 218.400 C 185.055 217.850,184.842 217.615,184.827 217.878 M250.800 227.668 C 247.385 230.864,242.210 234.800,241.424 234.800 C 241.081 234.800,240.800 234.980,240.800 235.200 C 240.800 236.298,245.898 232.739,250.521 228.414 C 253.995 225.164,254.035 225.642,250.851 232.400 C 248.991 236.349,248.799 236.800,248.973 236.800 C 249.100 236.800,249.624 235.861,251.132 232.929 C 252.088 231.070,254.000 226.174,254.000 225.585 C 254.000 224.849,253.385 225.249,250.800 227.668 M188.813 226.084 C 188.742 227.676,198.659 236.852,200.360 236.768 C 200.902 236.742,200.908 236.703,200.400 236.515 C 198.115 235.668,192.170 230.382,189.701 227.000 C 189.220 226.340,188.820 225.928,188.813 226.084 M248.153 237.700 C 246.776 240.036,246.686 240.235,247.387 239.400 C 248.200 238.432,248.900 237.200,248.638 237.200 C 248.533 237.200,248.315 237.425,248.153 237.700 M228.200 241.200 C 227.429 241.531,227.431 241.545,228.276 241.572 C 228.758 241.587,229.264 241.420,229.400 241.200 C 229.692 240.727,229.301 240.727,228.200 241.200 M214.801 242.100 C 214.800 242.467,225.024 242.426,226.352 242.053 C 226.876 241.907,224.491 241.790,221.054 241.793 C 217.616 241.797,214.802 241.935,214.801 242.100 M241.885 245.795 C 239.952 247.862,237.276 250.284,235.939 251.177 C 234.603 252.070,233.678 252.800,233.886 252.800 C 235.172 252.800,241.677 247.142,244.348 243.700 C 246.299 241.186,245.789 241.619,241.885 245.795 M188.000 252.949 C 188.000 253.240,194.456 256.477,194.650 256.283 C 194.779 256.154,191.853 254.593,188.300 252.896 C 188.135 252.817,188.000 252.841,188.000 252.949 M226.600 256.638 C 225.500 257.172,225.031 257.497,225.557 257.360 C 226.977 256.989,229.895 255.614,229.200 255.642 C 228.870 255.656,227.700 256.104,226.600 256.638 M196.800 257.256 C 197.790 257.696,199.140 258.139,199.800 258.240 C 200.460 258.342,199.740 257.971,198.200 257.416 C 194.869 256.216,194.317 256.153,196.800 257.256 M222.800 258.000 C 222.267 258.345,222.267 258.388,222.800 258.388 C 223.130 258.388,223.670 258.213,224.000 258.000 C 224.533 257.655,224.533 257.612,224.000 257.612 C 223.670 257.612,223.130 257.787,222.800 258.000 M218.200 259.021 L 215.800 259.556 218.165 259.341 C 220.563 259.123,223.138 258.429,221.400 258.469 C 220.960 258.479,219.520 258.728,218.200 259.021 M147.826 315.558 C 147.704 315.755,147.899 316.029,148.259 316.167 C 149.046 316.469,150.400 316.093,150.400 315.573 C 150.400 315.096,148.120 315.082,147.826 315.558 M157.400 315.600 C 157.241 315.857,158.596 316.000,161.176 316.000 C 163.592 316.000,165.200 315.840,165.200 315.600 C 165.200 315.362,163.675 315.200,161.424 315.200 C 159.337 315.200,157.537 315.379,157.400 315.600 M167.800 315.600 C 167.641 315.857,169.063 316.000,171.776 316.000 C 174.325 316.000,176.000 315.841,176.000 315.600 C 176.000 315.360,174.408 315.200,172.024 315.200 C 169.804 315.200,167.938 315.377,167.800 315.600 M189.600 315.600 C 189.600 315.840,191.208 316.000,193.624 316.000 C 196.204 316.000,197.559 315.857,197.400 315.600 C 197.263 315.379,195.463 315.200,193.376 315.200 C 191.125 315.200,189.600 315.362,189.600 315.600 M200.000 315.600 C 200.000 315.839,201.533 316.000,203.800 316.000 C 206.067 316.000,207.600 315.839,207.600 315.600 C 207.600 315.361,206.067 315.200,203.800 315.200 C 201.533 315.200,200.000 315.361,200.000 315.600 M215.600 315.600 C 215.600 315.839,217.133 316.000,219.400 316.000 C 221.667 316.000,223.200 315.839,223.200 315.600 C 223.200 315.361,221.667 315.200,219.400 315.200 C 217.133 315.200,215.600 315.361,215.600 315.600 M238.000 315.600 C 238.000 315.848,240.133 316.000,243.600 316.000 C 247.067 316.000,249.200 315.848,249.200 315.600 C 249.200 315.352,247.067 315.200,243.600 315.200 C 240.133 315.200,238.000 315.352,238.000 315.600 M249.600 315.600 C 249.600 315.848,251.733 316.000,255.200 316.000 C 258.667 316.000,260.800 315.848,260.800 315.600 C 260.800 315.352,258.667 315.200,255.200 315.200 C 251.733 315.200,249.600 315.352,249.600 315.600 M268.400 315.600 C 268.400 315.840,270.000 316.000,272.400 316.000 C 274.800 316.000,276.400 315.840,276.400 315.600 C 276.400 315.360,274.800 315.200,272.400 315.200 C 270.000 315.200,268.400 315.360,268.400 315.600 M279.000 315.600 C 278.841 315.857,280.263 316.000,282.976 316.000 C 285.525 316.000,287.200 315.841,287.200 315.600 C 287.200 315.360,285.608 315.200,283.224 315.200 C 281.004 315.200,279.138 315.377,279.000 315.600 M294.800 315.600 C 294.800 315.855,298.141 316.000,304.024 316.000 C 310.071 316.000,313.162 315.862,313.000 315.600 C 312.847 315.353,309.329 315.200,303.776 315.200 C 298.059 315.200,294.800 315.345,294.800 315.600 M320.800 315.600 C 320.800 315.839,322.333 316.000,324.600 316.000 C 326.867 316.000,328.400 315.839,328.400 315.600 C 328.400 315.361,326.867 315.200,324.600 315.200 C 322.333 315.200,320.800 315.361,320.800 315.600 M147.600 326.588 C 145.423 327.034,145.414 327.042,146.750 327.319 C 148.961 327.779,150.400 327.662,150.400 327.024 C 150.400 326.157,150.004 326.095,147.600 326.588 M157.400 327.200 C 157.537 327.421,159.337 327.600,161.424 327.600 C 163.675 327.600,165.200 327.438,165.200 327.200 C 165.200 326.960,163.592 326.800,161.176 326.800 C 158.596 326.800,157.241 326.943,157.400 327.200 M167.800 327.200 C 167.938 327.423,169.804 327.600,172.024 327.600 C 174.408 327.600,176.000 327.440,176.000 327.200 C 176.000 326.959,174.325 326.800,171.776 326.800 C 169.063 326.800,167.641 326.943,167.800 327.200 M189.600 327.200 C 189.600 327.438,191.125 327.600,193.376 327.600 C 195.463 327.600,197.263 327.421,197.400 327.200 C 197.559 326.943,196.204 326.800,193.624 326.800 C 191.208 326.800,189.600 326.960,189.600 327.200 M200.000 327.200 C 200.000 327.439,201.533 327.600,203.800 327.600 C 206.067 327.600,207.600 327.439,207.600 327.200 C 207.600 326.961,206.067 326.800,203.800 326.800 C 201.533 326.800,200.000 326.961,200.000 327.200 M215.600 327.200 C 215.600 327.439,217.133 327.600,219.400 327.600 C 221.667 327.600,223.200 327.439,223.200 327.200 C 223.200 326.961,221.667 326.800,219.400 326.800 C 217.133 326.800,215.600 326.961,215.600 327.200 M238.191 327.186 C 238.515 327.709,260.800 327.710,260.800 327.188 C 260.800 326.947,256.481 326.800,249.376 326.800 C 242.134 326.800,238.040 326.941,238.191 327.186 M268.600 327.200 C 268.736 327.420,270.446 327.600,272.400 327.600 C 274.354 327.600,276.064 327.420,276.200 327.200 C 276.359 326.943,274.996 326.800,272.400 326.800 C 269.804 326.800,268.441 326.943,268.600 327.200 M279.000 327.200 C 279.138 327.423,281.004 327.600,283.224 327.600 C 285.608 327.600,287.200 327.440,287.200 327.200 C 287.200 326.959,285.525 326.800,282.976 326.800 C 280.263 326.800,278.841 326.943,279.000 327.200 M295.000 327.200 C 295.153 327.447,298.596 327.600,304.000 327.600 C 309.404 327.600,312.847 327.447,313.000 327.200 C 313.162 326.938,310.063 326.800,304.000 326.800 C 297.937 326.800,294.838 326.938,295.000 327.200 M329.200 327.200 C 329.200 327.439,330.733 327.600,333.000 327.600 C 335.267 327.600,336.800 327.439,336.800 327.200 C 336.800 326.961,335.267 326.800,333.000 326.800 C 330.733 326.800,329.200 326.961,329.200 327.200 " stroke="none" fill="#5c9c74" fill-rule="evenodd"></path></g></svg>